<?xml version="1.0" encoding="UTF-8"?>
<svg xmlns="http://www.w3.org/2000/svg" width="860" height="290" viewBox="0 0 860 290" role="img" aria-labelledby="title desc">
  <title id="title">Deposit State</title>
  <desc id="desc">Deposit State diagram for 2030 KOREA StablePay Network documentation</desc>
  <defs>
    <marker id="arrow" markerWidth="10" markerHeight="10" refX="8" refY="3" orient="auto" markerUnits="strokeWidth">
      <path d="M0,0 L0,6 L9,3 z" fill="#334155" />
    </marker>
    <filter id="shadow" x="-8%" y="-8%" width="116%" height="116%">
      <feDropShadow dx="0" dy="3" stdDeviation="4" flood-color="#0f172a" flood-opacity="0.10"/>
    </filter>
  </defs>
  <rect x="0" y="0" width="860" height="290" rx="0" fill="#f8fafc"/>
  <text x="36" y="46" font-family="Arial, 'Apple SD Gothic Neo', sans-serif" font-size="24" font-weight="700" fill="#0f172a">Deposit State</text>
  
<rect x="55" y="120" width="130" height="64" rx="10" fill="#dbeafe" stroke="#2563eb" stroke-width="2" filter="url(#shadow)"/>
<text x="120" y="152" text-anchor="middle" font-family="Arial, 'Apple SD Gothic Neo', sans-serif" font-size="15" font-weight="600" fill="#0f172a">WAITING</text>
<rect x="235" y="120" width="130" height="64" rx="10" fill="#cffafe" stroke="#0891b2" stroke-width="2" filter="url(#shadow)"/>
<text x="300" y="152" text-anchor="middle" font-family="Arial, 'Apple SD Gothic Neo', sans-serif" font-size="15" font-weight="600" fill="#0f172a">DETECTED</text>
<rect x="415" y="120" width="140" height="64" rx="10" fill="#dcfce7" stroke="#16a34a" stroke-width="2" filter="url(#shadow)"/>
<text x="485" y="152" text-anchor="middle" font-family="Arial, 'Apple SD Gothic Neo', sans-serif" font-size="15" font-weight="600" fill="#0f172a">CONFIRMED</text>
<rect x="605" y="120" width="130" height="64" rx="10" fill="#dcfce7" stroke="#16a34a" stroke-width="2" filter="url(#shadow)"/>
<text x="670" y="152" text-anchor="middle" font-family="Arial, 'Apple SD Gothic Neo', sans-serif" font-size="15" font-weight="600" fill="#0f172a">CREDITED</text>
<rect x="335" y="225" width="120" height="50" rx="10" fill="#ffe4e6" stroke="#e11d48" stroke-width="2" filter="url(#shadow)"/>
<text x="395" y="250" text-anchor="middle" font-family="Arial, 'Apple SD Gothic Neo', sans-serif" font-size="15" font-weight="600" fill="#0f172a">FAILED</text>
<line x1="185" y1="152" x2="235" y2="152" stroke="#334155" stroke-width="2.2" marker-end="url(#arrow)"/>

<line x1="365" y1="152" x2="415" y2="152" stroke="#334155" stroke-width="2.2" marker-end="url(#arrow)"/>

<line x1="555" y1="152" x2="605" y2="152" stroke="#334155" stroke-width="2.2" marker-end="url(#arrow)"/>

<line x1="120" y1="184" x2="335" y2="240" stroke="#334155" stroke-width="2.2" marker-end="url(#arrow)"/>

<line x1="300" y1="184" x2="380" y2="225" stroke="#334155" stroke-width="2.2" marker-end="url(#arrow)"/>


</svg>
