<?xml version="1.0" encoding="UTF-8"?>
<svg xmlns="http://www.w3.org/2000/svg" width="850" height="300" viewBox="0 0 850 300" role="img" aria-labelledby="title desc">
  <title id="title">Settlement State</title>
  <desc id="desc">Settlement State diagram for 2030 KOREA StablePay Network documentation</desc>
  <defs>
    <marker id="arrow" markerWidth="10" markerHeight="10" refX="8" refY="3" orient="auto" markerUnits="strokeWidth">
      <path d="M0,0 L0,6 L9,3 z" fill="#334155" />
    </marker>
    <filter id="shadow" x="-8%" y="-8%" width="116%" height="116%">
      <feDropShadow dx="0" dy="3" stdDeviation="4" flood-color="#0f172a" flood-opacity="0.10"/>
    </filter>
  </defs>
  <rect x="0" y="0" width="850" height="300" rx="0" fill="#f8fafc"/>
  <text x="36" y="46" font-family="Arial, 'Apple SD Gothic Neo', sans-serif" font-size="24" font-weight="700" fill="#0f172a">Settlement State</text>
  
<rect x="55" y="120" width="140" height="64" rx="10" fill="#dbeafe" stroke="#2563eb" stroke-width="2" filter="url(#shadow)"/>
<text x="125" y="152" text-anchor="middle" font-family="Arial, 'Apple SD Gothic Neo', sans-serif" font-size="15" font-weight="600" fill="#0f172a">PENDING</text>
<rect x="245" y="120" width="150" height="64" rx="10" fill="#cffafe" stroke="#0891b2" stroke-width="2" filter="url(#shadow)"/>
<text x="320" y="152" text-anchor="middle" font-family="Arial, 'Apple SD Gothic Neo', sans-serif" font-size="15" font-weight="600" fill="#0f172a">CALCULATED</text>
<rect x="445" y="120" width="140" height="64" rx="10" fill="#dcfce7" stroke="#16a34a" stroke-width="2" filter="url(#shadow)"/>
<text x="515" y="152" text-anchor="middle" font-family="Arial, 'Apple SD Gothic Neo', sans-serif" font-size="15" font-weight="600" fill="#0f172a">APPROVED</text>
<rect x="635" y="120" width="120" height="64" rx="10" fill="#dcfce7" stroke="#16a34a" stroke-width="2" filter="url(#shadow)"/>
<text x="695" y="152" text-anchor="middle" font-family="Arial, 'Apple SD Gothic Neo', sans-serif" font-size="15" font-weight="600" fill="#0f172a">PAID</text>
<rect x="370" y="230" width="130" height="52" rx="10" fill="#ffe4e6" stroke="#e11d48" stroke-width="2" filter="url(#shadow)"/>
<text x="435" y="256" text-anchor="middle" font-family="Arial, 'Apple SD Gothic Neo', sans-serif" font-size="15" font-weight="600" fill="#0f172a">FAILED</text>
<line x1="195" y1="152" x2="245" y2="152" stroke="#334155" stroke-width="2.2" marker-end="url(#arrow)"/>

<line x1="395" y1="152" x2="445" y2="152" stroke="#334155" stroke-width="2.2" marker-end="url(#arrow)"/>

<line x1="585" y1="152" x2="635" y2="152" stroke="#334155" stroke-width="2.2" marker-end="url(#arrow)"/>

<line x1="320" y1="184" x2="395" y2="230" stroke="#334155" stroke-width="2.2" marker-end="url(#arrow)"/>

<line x1="515" y1="184" x2="445" y2="230" stroke="#334155" stroke-width="2.2" marker-end="url(#arrow)"/>


</svg>
