<?xml version="1.0" encoding="UTF-8"?>
<svg xmlns="http://www.w3.org/2000/svg" width="920" height="330" viewBox="0 0 920 330" role="img" aria-labelledby="title desc">
  <title id="title">Settlement State For Day 2</title>
  <desc id="desc">Settlement State For Day 2 diagram for SPN-19 Day 2 Ledger and Settlement learning</desc>
  <defs>
    <marker id="arrow" markerWidth="10" markerHeight="10" refX="8" refY="3" orient="auto" markerUnits="strokeWidth">
      <path d="M0,0 L0,6 L9,3 z" fill="#334155" />
    </marker>
    <filter id="shadow" x="-8%" y="-8%" width="116%" height="116%">
      <feDropShadow dx="0" dy="3" stdDeviation="4" flood-color="#0f172a" flood-opacity="0.09"/>
    </filter>
  </defs>
  <rect x="0" y="0" width="920" height="330" fill="#f8fafc"/>
  <text x="40" y="48" font-family="Arial, 'Apple SD Gothic Neo', sans-serif" font-size="24" font-weight="700" fill="#0f172a">Settlement State For Day 2</text>
  
<rect x="60" y="130" width="145" height="64" rx="12" fill="#dbeafe" stroke="#2563eb" stroke-width="2" filter="url(#shadow)"/>
<text x="132.5" y="162" text-anchor="middle" font-family="Arial, 'Apple SD Gothic Neo', sans-serif" font-size="15" font-weight="650" fill="#0f172a">PENDING</text>
<rect x="255" y="130" width="150" height="64" rx="12" fill="#cffafe" stroke="#0891b2" stroke-width="2" filter="url(#shadow)"/>
<text x="330" y="162" text-anchor="middle" font-family="Arial, 'Apple SD Gothic Neo', sans-serif" font-size="15" font-weight="650" fill="#0f172a">CALCULATED</text>
<rect x="455" y="130" width="140" height="64" rx="12" fill="#dcfce7" stroke="#16a34a" stroke-width="2" filter="url(#shadow)"/>
<text x="525" y="162" text-anchor="middle" font-family="Arial, 'Apple SD Gothic Neo', sans-serif" font-size="15" font-weight="650" fill="#0f172a">APPROVED</text>
<rect x="645" y="130" width="120" height="64" rx="12" fill="#dcfce7" stroke="#16a34a" stroke-width="2" filter="url(#shadow)"/>
<text x="705" y="162" text-anchor="middle" font-family="Arial, 'Apple SD Gothic Neo', sans-serif" font-size="15" font-weight="650" fill="#0f172a">PAID</text>
<rect x="390" y="245" width="130" height="52" rx="12" fill="#ffe4e6" stroke="#e11d48" stroke-width="2" filter="url(#shadow)"/>
<text x="455" y="271" text-anchor="middle" font-family="Arial, 'Apple SD Gothic Neo', sans-serif" font-size="15" font-weight="650" fill="#0f172a">FAILED</text>
<line x1="205" y1="162" x2="255" y2="162" stroke="#334155" stroke-width="2.2" marker-end="url(#arrow)"/>

<line x1="405" y1="162" x2="455" y2="162" stroke="#334155" stroke-width="2.2" marker-end="url(#arrow)"/>

<line x1="595" y1="162" x2="645" y2="162" stroke="#334155" stroke-width="2.2" marker-end="url(#arrow)"/>

<line x1="330" y1="194" x2="405" y2="245" stroke="#334155" stroke-width="2.2" marker-end="url(#arrow)"/>

<line x1="525" y1="194" x2="455" y2="245" stroke="#334155" stroke-width="2.2" marker-end="url(#arrow)"/>


</svg>