<svg xmlns="http://www.w3.org/2000/svg" width="1180" height="360" viewBox="0 0 1180 360">
  <defs>
    <marker id="arrow" markerWidth="10" markerHeight="10" refX="8" refY="3" orient="auto" markerUnits="strokeWidth">
      <path d="M0,0 L0,6 L9,3 z" fill="#475569"/>
    </marker>
    <style>
      .page-title { font: 700 28px Arial, sans-serif; fill: #0f172a; }
      .title { font: 700 16px Arial, sans-serif; fill: #0f172a; }
      .body { font: 500 13px Arial, sans-serif; fill: #334155; }
      .label { font: 700 13px Arial, sans-serif; fill: #0f766e; }
      .note { font: 600 14px Arial, sans-serif; fill: #475569; }
      .small { font: 500 12px Arial, sans-serif; fill: #64748b; }
    </style>
  </defs>
  <rect width="100%" height="100%" fill="#ffffff"/>
  <text x="40" y="48" class="page-title">SPN-21 Day 4 Learning Flow</text>
  
      
  <rect x="50" y="110" width="240" height="130" rx="10" fill="#ecfeff" stroke="#0891b2" stroke-width="2"/>
  <text x="170" y="141" text-anchor="middle" class="title">1. Indexer 개념</text>
  <text x="170" y="166" text-anchor="middle" class="body">블록/트랜잭션</text>
<text x="170" y="188" text-anchor="middle" class="body">이벤트 읽기</text>
      
  <rect x="330" y="110" width="240" height="130" rx="10" fill="#f0fdf4" stroke="#16a34a" stroke-width="2"/>
  <text x="450" y="141" text-anchor="middle" class="title">2. Checkpoint</text>
  <text x="450" y="166" text-anchor="middle" class="body">마지막 처리 위치</text>
<text x="450" y="188" text-anchor="middle" class="body">재시작 기준</text>
      
  <rect x="610" y="110" width="240" height="130" rx="10" fill="#fff7ed" stroke="#ea580c" stroke-width="2"/>
  <text x="730" y="141" text-anchor="middle" class="title">3. Idempotency</text>
  <text x="730" y="166" text-anchor="middle" class="body">중복 이벤트</text>
<text x="730" y="188" text-anchor="middle" class="body">중복 반영 방지</text>
      
  <rect x="890" y="110" width="240" height="130" rx="10" fill="#f8fafc" stroke="#475569" stroke-width="2"/>
  <text x="1010" y="141" text-anchor="middle" class="title">4. Reconciliation</text>
  <text x="1010" y="166" text-anchor="middle" class="body">DB와 온체인</text>
<text x="1010" y="188" text-anchor="middle" class="body">상태 대사</text>
      
  <line x1="290" y1="175" x2="330" y2="175" stroke="#475569" stroke-width="2.4" marker-end="url(#arrow)"/>
  
      
  <line x1="570" y1="175" x2="610" y2="175" stroke="#475569" stroke-width="2.4" marker-end="url(#arrow)"/>
  
      
  <line x1="850" y1="175" x2="890" y2="175" stroke="#475569" stroke-width="2.4" marker-end="url(#arrow)"/>
  
      <text x="50" y="300" class="note">목표: 온체인 이벤트를 읽고 Payment/Deposit/Ledger 상태를 안전하게 바꾸는 운영 감각을 만든다.</text>
    
</svg>